<svg xmlns="http://www.w3.org/2000/svg" xmlns:xlink="http://www.w3.org/1999/xlink" width="520" zoomAndPan="magnify" viewBox="0 0 390 225" height="300" preserveAspectRatio="xMidYMid meet" version="1.0"><defs><g/></defs><rect x="-39" width="468" fill="#ffffff" y="-22.5" height="270" fill-opacity="1"/><rect x="-39" width="468" fill="#ffffff" y="-22.5" height="270" fill-opacity="1"/><g fill="#ffffff" fill-opacity="1"><g transform="translate(75.376541, 162.13146)"><g><path d="M 20.109375 -1.359375 C 18.960938 -1.296875 17.914062 -1.441406 16.96875 -1.796875 C 14.726562 -2.804688 13.488281 -4.4375 13.25 -6.6875 C 13.070312 -9.789062 12.929688 -12.191406 12.828125 -13.890625 C 12.722656 -15.585938 12.660156 -16.59375 12.640625 -16.90625 C 12.515625 -17.207031 12.273438 -20.296875 11.921875 -26.171875 C 11.578125 -32.054688 11.0625 -40.722656 10.375 -52.171875 C 10.425781 -52.898438 10.425781 -53.703125 10.375 -54.578125 C 10.320312 -55.460938 10.265625 -56.414062 10.203125 -57.4375 C 9.585938 -57.40625 8.671875 -57.203125 7.453125 -56.828125 L 7.171875 -56.640625 C 5.960938 -56.046875 5.046875 -55.734375 4.421875 -55.703125 C 3.796875 -55.660156 3.0625 -55.769531 2.21875 -56.03125 C -0.539062 -57.3125 -1.992188 -59.140625 -2.140625 -61.515625 C -2.378906 -65.429688 0.210938 -67.96875 5.640625 -69.125 L 9.765625 -70.15625 C 9.734375 -70.570312 9.703125 -71.007812 9.671875 -71.46875 C 9.648438 -71.9375 9.679688 -72.378906 9.765625 -72.796875 C 9.835938 -73.210938 9.863281 -73.578125 9.84375 -73.890625 C 9.832031 -74.203125 9.816406 -74.457031 9.796875 -74.65625 C 9.773438 -75.164062 9.769531 -75.707031 9.78125 -76.28125 C 9.800781 -76.851562 9.84375 -77.398438 9.90625 -77.921875 L 10.53125 -83.21875 L 11.265625 -86.703125 C 11.492188 -87.960938 11.742188 -88.910156 12.015625 -89.546875 C 12.710938 -91.648438 13.546875 -93.351562 14.515625 -94.65625 L 14.65625 -94.984375 C 17.125 -98.335938 20.195312 -100.585938 23.875 -101.734375 L 24.296875 -101.90625 C 25.117188 -102.269531 25.679688 -102.460938 25.984375 -102.484375 C 26.503906 -102.515625 26.8125 -102.585938 26.90625 -102.703125 C 27.414062 -102.835938 27.976562 -102.945312 28.59375 -103.03125 C 29.21875 -103.125 29.941406 -103.191406 30.765625 -103.234375 C 33.546875 -103.410156 35.507812 -102.546875 36.65625 -100.640625 C 37.332031 -99.753906 37.703125 -98.847656 37.765625 -97.921875 C 37.816406 -96.984375 37.5625 -96.03125 37 -95.0625 C 36.070312 -93.164062 34.0625 -92.125 30.96875 -91.9375 L 29.28125 -91.515625 C 28.351562 -91.460938 27.695312 -91.210938 27.3125 -90.765625 C 27 -90.753906 26.789062 -90.691406 26.6875 -90.578125 C 26.507812 -90.359375 26.367188 -90.242188 26.265625 -90.234375 C 26.160156 -90.128906 26.0625 -89.992188 25.96875 -89.828125 C 25.875 -89.671875 25.726562 -89.484375 25.53125 -89.265625 C 25.332031 -89.046875 25.160156 -88.851562 25.015625 -88.6875 C 24.878906 -88.519531 24.769531 -88.382812 24.6875 -88.28125 C 24.488281 -88.0625 24.34375 -87.847656 24.25 -87.640625 C 24.082031 -87.003906 24 -86.6875 24 -86.6875 C 23.894531 -86.570312 23.847656 -86.4375 23.859375 -86.28125 C 23.867188 -86.125 23.828125 -85.945312 23.734375 -85.75 C 23.640625 -85.53125 23.507812 -85.101562 23.34375 -84.46875 C 22.894531 -81.644531 22.679688 -80.03125 22.703125 -79.625 C 22.617188 -79.414062 22.5625 -79.078125 22.53125 -78.609375 C 22.507812 -78.140625 22.410156 -77.640625 22.234375 -77.109375 C 22.253906 -76.691406 22.25 -76.273438 22.21875 -75.859375 C 22.195312 -75.441406 22.144531 -75.03125 22.0625 -74.625 L 22.21875 -72.15625 L 23.625 -72.234375 C 26.582031 -72.710938 28.578125 -72.984375 29.609375 -73.046875 C 30.234375 -73.085938 30.753906 -73.171875 31.171875 -73.296875 C 31.472656 -73.316406 31.78125 -73.332031 32.09375 -73.34375 C 32.40625 -73.363281 32.769531 -73.390625 33.1875 -73.421875 C 33.488281 -73.441406 33.796875 -73.457031 34.109375 -73.46875 C 34.421875 -73.488281 34.722656 -73.5625 35.015625 -73.6875 C 35.316406 -73.707031 35.957031 -73.742188 36.9375 -73.796875 C 37.925781 -73.859375 39.25 -73.941406 40.90625 -74.046875 C 41.40625 -74.179688 42.21875 -74.28125 43.34375 -74.34375 C 44.476562 -74.414062 45.875 -74.5 47.53125 -74.59375 C 50.625 -74.78125 52.226562 -74.828125 52.34375 -74.734375 C 53.789062 -74.816406 55.054688 -74.863281 56.140625 -74.875 C 57.234375 -74.882812 58.191406 -74.863281 59.015625 -74.8125 C 61.921875 -74.6875 63.796875 -73.554688 64.640625 -71.421875 C 65.109375 -70.617188 65.375 -69.757812 65.4375 -68.84375 C 65.507812 -67.601562 65.164062 -66.390625 64.40625 -65.203125 C 63.476562 -63.492188 61.878906 -62.570312 59.609375 -62.4375 C 56.078125 -62.519531 52.300781 -62.441406 48.28125 -62.203125 C 46.625 -62.109375 45.28125 -62.03125 44.25 -61.96875 C 43.226562 -61.90625 42.457031 -61.8125 41.9375 -61.6875 C 40.289062 -61.582031 39 -61.503906 38.0625 -61.453125 C 37.132812 -61.398438 36.515625 -61.363281 36.203125 -61.34375 C 35.910156 -61.21875 35.609375 -61.144531 35.296875 -61.125 C 34.992188 -61.101562 34.6875 -61.085938 34.375 -61.078125 C 34.070312 -61.054688 33.765625 -61.035156 33.453125 -61.015625 C 33.140625 -60.992188 32.828125 -60.972656 32.515625 -60.953125 C 32.222656 -60.835938 31.921875 -60.769531 31.609375 -60.75 C 31.296875 -60.726562 31.035156 -60.710938 30.828125 -60.703125 C 30.109375 -60.660156 29.460938 -60.59375 28.890625 -60.5 C 28.328125 -60.414062 27.789062 -60.304688 27.28125 -60.171875 C 26.570312 -60.128906 25.90625 -60.085938 25.28125 -60.046875 C 24.664062 -60.015625 24.148438 -59.9375 23.734375 -59.8125 L 22.515625 -59.578125 C 22.597656 -58.140625 22.671875 -56.851562 22.734375 -55.71875 C 22.804688 -54.582031 22.816406 -53.644531 22.765625 -52.90625 C 24.117188 -30.21875 24.859375 -18.722656 24.984375 -18.421875 C 24.992188 -18.210938 25.054688 -17.179688 25.171875 -15.328125 C 25.285156 -13.472656 25.453125 -10.738281 25.671875 -7.125 C 25.785156 -5.175781 24.941406 -3.578125 23.140625 -2.328125 C 21.941406 -1.734375 20.929688 -1.410156 20.109375 -1.359375 Z M 20.109375 -1.359375 "/></g></g></g><g fill="#ffffff" fill-opacity="1"><g transform="translate(132.002237, 158.732054)"><g><path d="M 7.421875 -21.40625 C 6.378906 -21.34375 5.269531 -21.585938 4.09375 -22.140625 C 2.082031 -23.054688 0.992188 -24.960938 0.828125 -27.859375 C 0.609375 -31.460938 0.4375 -34.269531 0.3125 -36.28125 C 0.195312 -38.289062 0.128906 -39.453125 0.109375 -39.765625 C -0.015625 -40.054688 -0.257812 -43.25 -0.625 -49.34375 C -0.925781 -54.289062 -1.1875 -58.148438 -1.40625 -60.921875 C -1.625 -63.703125 -1.800781 -65.351562 -1.9375 -65.875 C -2.082031 -68.351562 -2.21875 -69.742188 -2.34375 -70.046875 C -2.382812 -70.765625 -2.410156 -71.28125 -2.421875 -71.59375 C -2.441406 -71.90625 -2.457031 -72.113281 -2.46875 -72.21875 C -2.582031 -72.320312 -2.644531 -72.472656 -2.65625 -72.671875 C -2.65625 -72.773438 -2.660156 -72.90625 -2.671875 -73.0625 C -2.679688 -73.21875 -2.691406 -73.347656 -2.703125 -73.453125 C -2.816406 -73.640625 -2.882812 -73.890625 -2.90625 -74.203125 C -3.039062 -76.472656 -2.46875 -78.164062 -1.1875 -79.28125 C -0.125 -80.375 1.234375 -80.972656 2.890625 -81.078125 C 4.441406 -81.171875 5.867188 -80.789062 7.171875 -79.9375 C 8.460938 -78.976562 9.210938 -77.570312 9.421875 -75.71875 C 9.523438 -75.71875 9.578125 -75.71875 9.578125 -75.71875 C 9.578125 -75.71875 9.628906 -75.722656 9.734375 -75.734375 C 9.734375 -75.734375 9.734375 -75.785156 9.734375 -75.890625 L 12.78125 -76.859375 C 14.207031 -77.253906 15.796875 -77.503906 17.546875 -77.609375 C 19.085938 -77.703125 20.457031 -77.707031 21.65625 -77.625 C 22.863281 -77.539062 23.882812 -77.414062 24.71875 -77.25 L 25.203125 -77.125 C 25.703125 -77.15625 26.640625 -76.953125 28.015625 -76.515625 L 29.28125 -76.296875 C 30 -76.234375 30.675781 -76.117188 31.3125 -75.953125 C 31.945312 -75.785156 32.476562 -75.609375 32.90625 -75.421875 L 33.515625 -75.3125 C 33.941406 -75.226562 34.359375 -75.171875 34.765625 -75.140625 C 35.179688 -75.117188 35.597656 -75.066406 36.015625 -74.984375 C 36.546875 -74.921875 37.046875 -74.847656 37.515625 -74.765625 C 37.984375 -74.691406 38.429688 -74.566406 38.859375 -74.390625 C 40.210938 -74.265625 41.28125 -74.171875 42.0625 -74.109375 C 42.84375 -74.046875 43.4375 -74.03125 43.84375 -74.0625 C 44.257812 -74.082031 44.617188 -74.101562 44.921875 -74.125 C 45.234375 -74.144531 45.492188 -74.160156 45.703125 -74.171875 C 46.015625 -74.085938 46.476562 -74.0625 47.09375 -74.09375 C 47.613281 -74.125 48.050781 -74.148438 48.40625 -74.171875 C 48.769531 -74.191406 49.054688 -74.210938 49.265625 -74.234375 C 49.484375 -74.140625 49.695312 -74.097656 49.90625 -74.109375 C 50.425781 -74.140625 50.832031 -74.21875 51.125 -74.34375 C 51.332031 -74.351562 51.535156 -74.363281 51.734375 -74.375 C 51.941406 -74.382812 52.148438 -74.398438 52.359375 -74.421875 C 52.566406 -74.429688 52.796875 -74.441406 53.046875 -74.453125 C 53.304688 -74.472656 53.539062 -74.488281 53.75 -74.5 C 56.019531 -74.632812 57.773438 -73.863281 59.015625 -72.1875 C 59.921875 -71.09375 60.40625 -69.972656 60.46875 -68.828125 C 60.519531 -68.015625 60.316406 -67.078125 59.859375 -66.015625 C 59.160156 -63.898438 57.425781 -62.609375 54.65625 -62.140625 L 50.484375 -61.71875 L 47.390625 -61.703125 C 47.179688 -61.679688 46.921875 -61.660156 46.609375 -61.640625 C 46.296875 -61.628906 46.03125 -61.671875 45.8125 -61.765625 C 45.507812 -61.742188 45.226562 -61.722656 44.96875 -61.703125 C 44.707031 -61.691406 44.472656 -61.679688 44.265625 -61.671875 C 43.765625 -61.640625 43.457031 -61.671875 43.34375 -61.765625 L 40.703125 -61.75 L 33.984375 -62.59375 L 29.71875 -63.578125 C 28.675781 -63.828125 27.789062 -64.007812 27.0625 -64.125 C 26.332031 -64.238281 25.753906 -64.335938 25.328125 -64.421875 C 25.222656 -64.515625 25.085938 -64.578125 24.921875 -64.609375 C 24.765625 -64.648438 24.578125 -64.71875 24.359375 -64.8125 C 24.054688 -64.894531 23.695312 -64.925781 23.28125 -64.90625 C 22.851562 -64.988281 22.484375 -65.046875 22.171875 -65.078125 C 21.867188 -65.109375 21.613281 -65.117188 21.40625 -65.109375 L 18.296875 -65.234375 L 15.984375 -64.9375 C 14.554688 -64.539062 13.59375 -64.125 13.09375 -63.6875 C 12.789062 -63.664062 12.59375 -63.597656 12.5 -63.484375 C 12.394531 -63.378906 12.316406 -63.296875 12.265625 -63.234375 C 12.222656 -63.179688 12.15625 -63.101562 12.0625 -63 C 11.570312 -62.445312 11.328125 -62.117188 11.328125 -62.015625 C 11.335938 -61.910156 11.242188 -61.75 11.046875 -61.53125 L 10.90625 -61.21875 C 10.9375 -60.695312 11.015625 -60.28125 11.140625 -59.96875 C 11.148438 -59.769531 11.242188 -58.144531 11.421875 -55.09375 C 11.609375 -52.050781 11.875 -47.644531 12.21875 -41.875 C 12.351562 -41.363281 12.488281 -39.972656 12.625 -37.703125 C 12.769531 -35.441406 12.957031 -32.351562 13.1875 -28.4375 C 13.351562 -25.644531 12.394531 -23.617188 10.3125 -22.359375 C 9.3125 -21.785156 8.347656 -21.46875 7.421875 -21.40625 Z M 7.421875 -21.40625 "/></g></g></g><g fill="#ffffff" fill-opacity="1"><g transform="translate(183.677054, 155.629865)"><g><path d="M 13.265625 -50.78125 C 13.773438 -50.8125 14.632812 -51.128906 15.84375 -51.734375 C 16.238281 -51.960938 16.488281 -52.132812 16.59375 -52.25 C 16.6875 -52.351562 16.785156 -52.40625 16.890625 -52.40625 C 16.992188 -52.414062 17.097656 -52.472656 17.203125 -52.578125 C 17.203125 -52.578125 17.394531 -52.691406 17.78125 -52.921875 C 17.882812 -53.035156 17.988281 -53.09375 18.09375 -53.09375 C 18.195312 -53.101562 18.296875 -53.164062 18.390625 -53.28125 C 18.484375 -53.382812 18.550781 -53.460938 18.59375 -53.515625 C 18.644531 -53.578125 18.71875 -53.660156 18.8125 -53.765625 C 18.914062 -53.878906 19.015625 -53.988281 19.109375 -54.09375 C 19.203125 -54.207031 19.296875 -54.320312 19.390625 -54.4375 C 19.492188 -54.53125 19.566406 -54.628906 19.609375 -54.734375 C 19.648438 -54.847656 19.722656 -54.960938 19.828125 -55.078125 C 19.921875 -55.179688 19.988281 -55.285156 20.03125 -55.390625 C 20.082031 -55.503906 20.15625 -55.613281 20.25 -55.71875 C 20.445312 -55.945312 20.539062 -56.164062 20.53125 -56.375 C 20.507812 -56.675781 20.550781 -56.878906 20.65625 -56.984375 C 20.75 -57.097656 20.785156 -57.359375 20.765625 -57.765625 C 20.742188 -57.972656 20.726562 -58.175781 20.71875 -58.375 C 20.707031 -58.582031 20.695312 -58.738281 20.6875 -58.84375 C 20.582031 -58.9375 20.523438 -59.0625 20.515625 -59.21875 C 20.503906 -59.375 20.441406 -59.503906 20.328125 -59.609375 C 20.003906 -59.898438 19.734375 -60.09375 19.515625 -60.1875 C 19.492188 -60.488281 19.328125 -60.679688 19.015625 -60.765625 C 18.898438 -60.960938 18.578125 -61.148438 18.046875 -61.328125 C 17.835938 -61.523438 17.625 -61.671875 17.40625 -61.765625 C 17.195312 -61.859375 16.984375 -61.945312 16.765625 -62.03125 C 16.671875 -62.03125 16.492188 -62.019531 16.234375 -62 C 15.972656 -61.988281 15.6875 -61.972656 15.375 -61.953125 C 14.863281 -61.921875 14.425781 -61.894531 14.0625 -61.875 C 13.695312 -61.851562 13.460938 -61.835938 13.359375 -61.828125 C 13.265625 -61.722656 13.191406 -61.664062 13.140625 -61.65625 C 13.085938 -61.65625 13.0625 -61.65625 13.0625 -61.65625 C 12.96875 -61.550781 12.894531 -61.492188 12.84375 -61.484375 C 12.800781 -61.484375 12.726562 -61.425781 12.625 -61.3125 C 12.425781 -61.09375 12.328125 -60.984375 12.328125 -60.984375 C 12.234375 -60.878906 12.191406 -60.773438 12.203125 -60.671875 C 12.097656 -60.554688 12.046875 -60.445312 12.046875 -60.34375 C 12.054688 -60.238281 12.015625 -60.128906 11.921875 -60.015625 C 11.816406 -59.921875 11.769531 -59.820312 11.78125 -59.71875 C 11.789062 -59.613281 11.742188 -59.503906 11.640625 -59.390625 C 11.546875 -59.285156 11.367188 -58.804688 11.109375 -57.953125 L 10.6875 -54.6875 C 10.851562 -52 11.710938 -50.695312 13.265625 -50.78125 Z M 30.75 -22.96875 L 29.203125 -22.875 L 22.359375 -23.390625 C 21.929688 -23.472656 21.5625 -23.550781 21.25 -23.625 C 20.9375 -23.707031 20.617188 -23.789062 20.296875 -23.875 C 19.992188 -23.957031 19.734375 -24.046875 19.515625 -24.140625 C 19.296875 -24.234375 19.085938 -24.328125 18.890625 -24.421875 C 18.671875 -24.515625 18.484375 -24.554688 18.328125 -24.546875 C 18.171875 -24.535156 17.988281 -24.578125 17.78125 -24.671875 C 15.976562 -25.285156 14.15625 -26.265625 12.3125 -27.609375 C 11.863281 -28.097656 11.398438 -28.507812 10.921875 -28.84375 C 10.441406 -29.175781 9.984375 -29.484375 9.546875 -29.765625 L 7.390625 -32.125 C 6.835938 -32.8125 6.332031 -33.476562 5.875 -34.125 C 5.414062 -34.769531 4.960938 -35.394531 4.515625 -36 L 3.671875 -37.1875 C 3.535156 -37.695312 3.320312 -38.171875 3.03125 -38.609375 C 2.738281 -39.054688 2.484375 -39.484375 2.265625 -39.890625 L 1.015625 -42.609375 C 0.0351562 -45.242188 -0.539062 -47.117188 -0.71875 -48.234375 C -0.851562 -48.859375 -0.988281 -49.453125 -1.125 -50.015625 C -1.269531 -50.578125 -1.40625 -51.054688 -1.53125 -51.453125 L -1.71875 -54.5625 C -1.65625 -55.1875 -1.585938 -55.78125 -1.515625 -56.34375 C -1.441406 -56.914062 -1.367188 -57.410156 -1.296875 -57.828125 C -1.222656 -58.359375 -1.171875 -58.804688 -1.140625 -59.171875 C -1.109375 -59.535156 -1.050781 -59.925781 -0.96875 -60.34375 C -0.894531 -60.769531 -0.796875 -61.242188 -0.671875 -61.765625 C -0.554688 -62.285156 -0.363281 -62.914062 -0.09375 -63.65625 L 0.046875 -64.140625 C 0.941406 -66.253906 2.164062 -68.1875 3.71875 -69.9375 L 4.46875 -70.609375 C 7.019531 -72.835938 10.253906 -74.066406 14.171875 -74.296875 C 18.296875 -74.546875 21.546875 -73.863281 23.921875 -72.25 C 25.304688 -71.707031 26.273438 -71.09375 26.828125 -70.40625 C 28.003906 -69.632812 28.9375 -68.804688 29.625 -67.921875 C 29.84375 -67.515625 30.125 -67.09375 30.46875 -66.65625 C 30.8125 -66.21875 31.097656 -65.742188 31.328125 -65.234375 C 31.566406 -64.835938 31.75 -64.40625 31.875 -63.9375 C 32.007812 -63.476562 32.140625 -63 32.265625 -62.5 C 32.734375 -61.59375 33.003906 -60.566406 33.078125 -59.421875 C 33.316406 -55.410156 32.585938 -52.113281 30.890625 -49.53125 C 30.609375 -48.894531 30.296875 -48.332031 29.953125 -47.84375 C 29.617188 -47.363281 29.265625 -46.898438 28.890625 -46.453125 C 27.921875 -45.359375 26.992188 -44.421875 26.109375 -43.640625 C 25.222656 -42.867188 24.378906 -42.25 23.578125 -41.78125 C 21.867188 -40.851562 19.847656 -40.0625 17.515625 -39.40625 C 17.734375 -39.3125 17.867188 -39.210938 17.921875 -39.109375 C 17.984375 -39.015625 18.066406 -38.921875 18.171875 -38.828125 C 18.273438 -38.734375 18.351562 -38.632812 18.40625 -38.53125 C 18.46875 -38.4375 18.554688 -38.335938 18.671875 -38.234375 C 19.003906 -37.941406 19.320312 -37.753906 19.625 -37.671875 C 20.050781 -37.378906 20.476562 -37.148438 20.90625 -36.984375 C 21.226562 -36.890625 21.601562 -36.753906 22.03125 -36.578125 C 22.238281 -36.484375 22.554688 -36.34375 22.984375 -36.15625 C 23.617188 -35.988281 24.144531 -35.8125 24.5625 -35.625 C 25.707031 -35.5 26.617188 -35.398438 27.296875 -35.328125 C 27.972656 -35.265625 28.46875 -35.242188 28.78125 -35.265625 L 34.46875 -36.21875 C 34.675781 -36.226562 35.082031 -36.359375 35.6875 -36.609375 C 36.300781 -36.859375 36.804688 -37.046875 37.203125 -37.171875 C 38.328125 -37.453125 39.1875 -37.816406 39.78125 -38.265625 C 40.382812 -38.609375 41.140625 -38.960938 42.046875 -39.328125 C 42.242188 -39.546875 42.691406 -39.832031 43.390625 -40.1875 C 45.191406 -41.125 46.832031 -42.253906 48.3125 -43.578125 L 48.609375 -43.90625 C 50.984375 -45.8125 52.679688 -47.625 53.703125 -49.34375 C 54.285156 -50.007812 55.050781 -51.144531 56 -52.75 C 56.84375 -54.144531 57.972656 -55.140625 59.390625 -55.734375 C 59.984375 -56.085938 60.59375 -56.28125 61.21875 -56.3125 C 61.925781 -56.351562 62.554688 -56.179688 63.109375 -55.796875 C 65.960938 -54.929688 67.472656 -53.109375 67.640625 -50.328125 C 67.710938 -49.085938 67.320312 -47.71875 66.46875 -46.21875 C 66.382812 -45.894531 66.269531 -45.628906 66.125 -45.421875 C 65.988281 -45.210938 65.878906 -45 65.796875 -44.78125 C 65.398438 -44.34375 65.15625 -44.015625 65.0625 -43.796875 C 64.78125 -43.367188 64.519531 -42.992188 64.28125 -42.671875 C 64.039062 -42.347656 63.820312 -42.078125 63.625 -41.859375 C 63.4375 -41.648438 63.222656 -41.40625 62.984375 -41.125 C 62.742188 -40.851562 62.53125 -40.609375 62.34375 -40.390625 C 61.65625 -39.628906 60.945312 -38.835938 60.21875 -38.015625 C 59.488281 -37.191406 58.734375 -36.390625 57.953125 -35.609375 C 57.066406 -34.835938 56.328125 -34.175781 55.734375 -33.625 C 55.148438 -33.082031 54.660156 -32.691406 54.265625 -32.453125 L 53.515625 -31.9375 C 53.128906 -31.601562 52.707031 -31.289062 52.25 -31 C 51.800781 -30.71875 51.328125 -30.460938 50.828125 -30.234375 C 49.828125 -29.648438 49.175781 -29.296875 48.875 -29.171875 C 48.570312 -28.953125 48.21875 -28.726562 47.8125 -28.5 C 47.625 -28.375 47.425781 -28.253906 47.21875 -28.140625 C 47.019531 -28.023438 46.816406 -27.910156 46.609375 -27.796875 C 46.023438 -27.546875 45.628906 -27.363281 45.421875 -27.25 C 45.222656 -27.132812 45.019531 -27.046875 44.8125 -26.984375 C 44.601562 -26.929688 44.398438 -26.84375 44.203125 -26.71875 C 42.890625 -26.019531 41.578125 -25.421875 40.265625 -24.921875 C 38.953125 -24.429688 37.632812 -24.046875 36.3125 -23.765625 L 35.84375 -23.75 C 35.425781 -23.71875 35.007812 -23.691406 34.59375 -23.671875 C 34.1875 -23.648438 33.726562 -23.570312 33.21875 -23.4375 C 32.8125 -23.300781 32.398438 -23.21875 31.984375 -23.1875 C 31.578125 -23.164062 31.164062 -23.09375 30.75 -22.96875 Z M 30.75 -22.96875 "/></g></g></g><g fill="#ffffff" fill-opacity="1"><g transform="translate(241.695185, 152.146867)"><g><path d="M 54.703125 -17.25 C 51.503906 -17.0625 48.84375 -17.367188 46.71875 -18.171875 C 44.726562 -18.785156 42.847656 -19.96875 41.078125 -21.71875 L 39.609375 -23.03125 C 38.929688 -23.8125 38.335938 -24.597656 37.828125 -25.390625 C 37.328125 -26.191406 36.898438 -26.945312 36.546875 -27.65625 C 35.953125 -28.863281 35.34375 -30.332031 34.71875 -32.0625 L 34.15625 -33.71875 L 33.34375 -36.9375 C 33.195312 -37.65625 33.082031 -38.296875 33 -38.859375 C 32.914062 -39.429688 32.753906 -39.914062 32.515625 -40.3125 C 32.222656 -41.632812 31.957031 -42.597656 31.71875 -43.203125 C 31.4375 -44.429688 31.234375 -45.25 31.109375 -45.65625 C 30.867188 -46.257812 30.75 -46.5625 30.75 -46.5625 L 30.015625 -48.234375 C 29.304688 -49.734375 28.609375 -50.984375 27.921875 -51.984375 L 27.765625 -52.125 C 27.410156 -52.726562 26.96875 -53.273438 26.4375 -53.765625 C 26.09375 -54.367188 25.585938 -54.957031 24.921875 -55.53125 C 24.066406 -56.101562 23.21875 -56.519531 22.375 -56.78125 C 20.988281 -57.320312 19.78125 -57.5625 18.75 -57.5 C 18.539062 -57.488281 18.382812 -57.523438 18.28125 -57.609375 C 18.070312 -57.703125 17.453125 -57.71875 16.421875 -57.65625 C 15.390625 -57.59375 14.773438 -57.503906 14.578125 -57.390625 C 14.265625 -57.273438 13.90625 -57.101562 13.5 -56.875 C 13.101562 -56.738281 12.804688 -56.5625 12.609375 -56.34375 C 12.515625 -56.238281 12.441406 -56.160156 12.390625 -56.109375 C 12.335938 -56.054688 12.265625 -55.972656 12.171875 -55.859375 C 12.078125 -55.753906 12.03125 -55.675781 12.03125 -55.625 C 12.03125 -55.570312 11.984375 -55.488281 11.890625 -55.375 C 11.785156 -55.269531 11.734375 -55.191406 11.734375 -55.140625 C 11.742188 -55.085938 11.75 -55.0625 11.75 -55.0625 C 11.65625 -54.945312 11.609375 -54.835938 11.609375 -54.734375 L 11.515625 -53.640625 C 11.578125 -52.703125 11.664062 -52.085938 11.78125 -51.796875 C 11.800781 -51.585938 11.816406 -51.351562 11.828125 -51.09375 C 11.847656 -50.832031 11.863281 -50.597656 11.875 -50.390625 C 11.882812 -50.191406 11.898438 -49.9375 11.921875 -49.625 C 11.941406 -49.3125 12.007812 -49.054688 12.125 -48.859375 C 12.132812 -48.648438 12.164062 -48.109375 12.21875 -47.234375 C 12.269531 -46.367188 12.335938 -45.210938 12.421875 -43.765625 C 12.554688 -43.347656 12.65625 -42.570312 12.71875 -41.4375 C 12.789062 -40.3125 12.878906 -38.867188 12.984375 -37.109375 C 13.109375 -36.710938 13.195312 -36.097656 13.25 -35.265625 C 13.300781 -34.441406 13.363281 -33.410156 13.4375 -32.171875 L 13.8125 -28.625 C 13.9375 -26.445312 13.160156 -24.6875 11.484375 -23.34375 C 10.492188 -22.570312 9.328125 -22.148438 7.984375 -22.078125 C 7.160156 -22.023438 6.328125 -22.125 5.484375 -22.375 C 3.265625 -23.175781 1.914062 -24.960938 1.4375 -27.734375 C 1.425781 -27.941406 1.414062 -28.144531 1.40625 -28.34375 C 1.394531 -28.550781 1.382812 -28.707031 1.375 -28.8125 C 1.257812 -28.90625 1.160156 -29.671875 1.078125 -31.109375 C 0.992188 -32.453125 0.925781 -33.507812 0.875 -34.28125 C 0.832031 -35.0625 0.753906 -35.65625 0.640625 -36.0625 C 0.535156 -37.820312 0.445312 -39.265625 0.375 -40.390625 C 0.3125 -41.523438 0.21875 -42.296875 0.09375 -42.703125 C 0 -44.148438 -0.0664062 -45.285156 -0.109375 -46.109375 C -0.160156 -46.941406 -0.191406 -47.457031 -0.203125 -47.65625 C -0.328125 -47.851562 -0.394531 -48.054688 -0.40625 -48.265625 C -0.414062 -48.472656 -0.425781 -48.628906 -0.4375 -48.734375 C -0.476562 -49.554688 -0.519531 -50.273438 -0.5625 -50.890625 C -0.601562 -51.515625 -0.6875 -52.03125 -0.8125 -52.4375 C -0.925781 -52.632812 -1.003906 -53.09375 -1.046875 -53.8125 C -1.085938 -54.539062 -1.117188 -55.109375 -1.140625 -55.515625 C -1.171875 -55.929688 -1.191406 -56.238281 -1.203125 -56.4375 C -1.328125 -56.644531 -1.425781 -57.367188 -1.5 -58.609375 C -1.53125 -59.117188 -1.554688 -59.554688 -1.578125 -59.921875 C -1.597656 -60.285156 -1.609375 -60.519531 -1.609375 -60.625 C -1.734375 -60.820312 -1.828125 -61.4375 -1.890625 -62.46875 C -1.941406 -63.394531 -2.03125 -64.015625 -2.15625 -64.328125 C -2.269531 -64.523438 -2.34375 -64.925781 -2.375 -65.53125 C -2.476562 -67.1875 -2.097656 -68.554688 -1.234375 -69.640625 C 0.117188 -71.179688 1.675781 -72.003906 3.4375 -72.109375 C 6.226562 -72.273438 8.210938 -71.097656 9.390625 -68.578125 L 9.6875 -68.75 C 11.414062 -69.46875 13.722656 -69.914062 16.609375 -70.09375 C 18.148438 -70.1875 19.863281 -70.03125 21.75 -69.625 L 23.015625 -69.390625 C 23.535156 -69.316406 24.082031 -69.242188 24.65625 -69.171875 C 25.226562 -69.109375 25.773438 -68.984375 26.296875 -68.796875 C 27.359375 -68.453125 28.585938 -67.804688 29.984375 -66.859375 C 30.941406 -66.515625 31.921875 -65.800781 32.921875 -64.71875 C 33.671875 -64.238281 34.546875 -63.40625 35.546875 -62.21875 C 36.296875 -61.75 37.023438 -60.859375 37.734375 -59.546875 C 38.273438 -58.972656 38.785156 -58.234375 39.265625 -57.328125 L 39.625 -56.578125 C 40.289062 -55.679688 40.816406 -54.625 41.203125 -53.40625 C 41.660156 -52.695312 42.046875 -51.890625 42.359375 -50.984375 C 42.671875 -50.078125 42.960938 -49.066406 43.234375 -47.953125 C 43.359375 -47.742188 43.453125 -47.507812 43.515625 -47.25 C 43.585938 -47 43.679688 -46.769531 43.796875 -46.5625 C 43.910156 -46.375 43.976562 -46.125 44 -45.8125 C 44.019531 -45.5 44.085938 -45.191406 44.203125 -44.890625 C 44.328125 -44.578125 44.394531 -44.289062 44.40625 -44.03125 C 44.425781 -43.78125 44.492188 -43.554688 44.609375 -43.359375 C 44.847656 -42.847656 45.25 -41.269531 45.8125 -38.625 C 45.84375 -38 45.914062 -37.585938 46.03125 -37.390625 C 46.0625 -36.972656 46.128906 -36.71875 46.234375 -36.625 C 46.398438 -35.59375 46.820312 -34.632812 47.5 -33.75 C 47.726562 -33.351562 47.957031 -33.007812 48.1875 -32.71875 C 48.300781 -32.519531 48.441406 -32.289062 48.609375 -32.03125 C 48.785156 -31.78125 48.9375 -31.457031 49.0625 -31.0625 C 49.164062 -31.070312 49.332031 -30.976562 49.5625 -30.78125 C 49.570312 -30.570312 49.675781 -30.472656 49.875 -30.484375 C 49.976562 -30.390625 50.03125 -30.34375 50.03125 -30.34375 C 50.03125 -30.34375 50.085938 -30.289062 50.203125 -30.1875 C 50.421875 -29.988281 50.640625 -29.847656 50.859375 -29.765625 C 51.066406 -29.671875 51.320312 -29.628906 51.625 -29.640625 C 51.738281 -29.546875 52.109375 -29.519531 52.734375 -29.5625 C 53.660156 -29.613281 54.222656 -29.695312 54.421875 -29.8125 C 54.617188 -29.925781 54.769531 -29.988281 54.875 -30 C 54.976562 -30.007812 55.078125 -30.066406 55.171875 -30.171875 C 56.410156 -30.347656 58.226562 -31.1875 60.625 -32.6875 L 62.84375 -34.5 C 64.394531 -36.050781 65.359375 -37.195312 65.734375 -37.9375 L 68.046875 -41.046875 C 68.921875 -41.921875 69.863281 -43.425781 70.875 -45.5625 L 72.40625 -48.125 C 72.601562 -48.34375 72.859375 -48.828125 73.171875 -49.578125 C 73.492188 -50.328125 73.882812 -51.226562 74.34375 -52.28125 L 75.03125 -53.890625 C 76.082031 -57.160156 77.945312 -58.875 80.625 -59.03125 L 81.078125 -59.0625 C 83.460938 -59.207031 85.222656 -58.382812 86.359375 -56.59375 C 87.128906 -55.800781 87.550781 -54.785156 87.625 -53.546875 C 87.6875 -52.523438 87.445312 -51.375 86.90625 -50.09375 C 86.8125 -49.988281 86.769531 -49.859375 86.78125 -49.703125 C 86.789062 -49.546875 86.742188 -49.410156 86.640625 -49.296875 C 86.460938 -48.878906 86.375 -48.671875 86.375 -48.671875 C 86.269531 -48.554688 86.144531 -48.363281 86 -48.09375 C 85.863281 -47.820312 85.707031 -47.472656 85.53125 -47.046875 L 85.265625 -46.421875 C 84.628906 -44.734375 83.9375 -43.296875 83.1875 -42.109375 C 83 -41.785156 82.832031 -41.460938 82.6875 -41.140625 C 82.550781 -40.828125 82.390625 -40.507812 82.203125 -40.1875 C 82.023438 -39.757812 81.84375 -39.382812 81.65625 -39.0625 C 81.46875 -38.738281 81.273438 -38.46875 81.078125 -38.25 C 80.890625 -37.925781 80.707031 -37.601562 80.53125 -37.28125 C 80.351562 -36.96875 80.164062 -36.695312 79.96875 -36.46875 C 79.78125 -36.144531 79.585938 -35.847656 79.390625 -35.578125 C 79.203125 -35.304688 79.007812 -35.066406 78.8125 -34.859375 C 77.5625 -33.128906 76.707031 -31.832031 76.25 -30.96875 C 75.957031 -30.539062 75.710938 -30.21875 75.515625 -30 C 75.328125 -29.78125 75.179688 -29.613281 75.078125 -29.5 C 74.890625 -29.382812 74.695312 -29.21875 74.5 -29 C 74.101562 -28.5625 73.738281 -28.125 73.40625 -27.6875 C 73.070312 -27.25 72.710938 -26.816406 72.328125 -26.390625 C 70.753906 -24.953125 69.570312 -23.953125 68.78125 -23.390625 C 67.488281 -22.484375 66.320312 -21.6875 65.28125 -21 C 64.238281 -20.3125 63.257812 -19.785156 62.34375 -19.421875 L 58.53125 -18.09375 C 56.90625 -17.59375 55.628906 -17.3125 54.703125 -17.25 Z M 54.703125 -17.25 "/></g></g></g></svg>